<?xml version="1.0" encoding="UTF-8" standalone="no"?>
<svg width="1440" height="1024" viewBox="0 0 1440 1024" fill="none" xmlns="http://www.w3.org/2000/svg">
  <!-- City grid pattern -->
  <g opacity="0.15" stroke="#3AB98B" stroke-width="1.5">
    <!-- Major horizontal roads -->
    <path d="M0 256 H1440" />
    <path d="M0 512 H1440" />
    <path d="M0 768 H1440" />
    
    <!-- Major vertical roads -->
    <path d="M360 0 V1024" />
    <path d="M720 0 V1024" />
    <path d="M1080 0 V1024" />
    
    <!-- Minor roads - Horizontal -->
    <path d="M0 128 H1440" stroke-width="0.8" />
    <path d="M0 384 H1440" stroke-width="0.8" />
    <path d="M0 640 H1440" stroke-width="0.8" />
    <path d="M0 896 H1440" stroke-width="0.8" />
    
    <!-- Minor roads - Vertical -->
    <path d="M180 0 V1024" stroke-width="0.8" />
    <path d="M540 0 V1024" stroke-width="0.8" />
    <path d="M900 0 V1024" stroke-width="0.8" />
    <path d="M1260 0 V1024" stroke-width="0.8" />
    
    <!-- Smaller grid streets -->
    <g opacity="0.4" stroke-width="0.5">
      <path d="M0 64 H1440" />
      <path d="M0 192 H1440" />
      <path d="M0 320 H1440" />
      <path d="M0 448 H1440" />
      <path d="M0 576 H1440" />
      <path d="M0 704 H1440" />
      <path d="M0 832 H1440" />
      <path d="M0 960 H1440" />
      
      <path d="M90 0 V1024" />
      <path d="M270 0 V1024" />
      <path d="M450 0 V1024" />
      <path d="M630 0 V1024" />
      <path d="M810 0 V1024" />
      <path d="M990 0 V1024" />
      <path d="M1170 0 V1024" />
      <path d="M1350 0 V1024" />
    </g>
    
    <!-- Curved roads -->
    <path d="M180 384 Q270 270 360 256" stroke-width="1.2" />
    <path d="M720 640 Q810 730 900 768" stroke-width="1.2" />
    <path d="M360 768 Q450 850 540 896" stroke-width="1.2" />
    <path d="M900 192 Q990 300 1080 384" stroke-width="1.2" />
    
    <!-- Diagonal roads -->
    <path d="M0 0 L360 384" stroke-width="1" />
    <path d="M540 128 L900 512" stroke-width="1" />
    <path d="M720 384 L1080 768" stroke-width="1" />
    <path d="M270 640 L540 896" stroke-width="1" />
    <path d="M900 384 L1260 768" stroke-width="1" />
  </g>
</svg> 